<svg xmlns="http://www.w3.org/2000/svg" width="22.03" height="19.969" viewBox="0 0 22.03 19.969">
    <defs>
        <style>
            .cls-1 {
            fill: #fff;
            fill-rule: evenodd;
            }
        </style>
    </defs>
    <path id="Search_icon" data-name="Search icon" class="cls-1"
          d="M1797.69,23.29a9.25,9.25,0,0,0-12.18,0,7.345,7.345,0,0,0,0,11.063,9.284,9.284,0,0,0,11,.886,1.6,1.6,0,0,0,.49.828l4.89,4.439a1.947,1.947,0,0,0,2.57,0,1.533,1.533,0,0,0,0-2.335l-4.88-4.441a1.871,1.871,0,0,0-.92-0.446A7.3,7.3,0,0,0,1797.69,23.29Zm-1.54,9.66a6.917,6.917,0,0,1-9.1,0,5.483,5.483,0,0,1,0-8.257,6.916,6.916,0,0,1,9.1,0A5.483,5.483,0,0,1,1796.15,32.95Z"
          transform="translate(-1783 -21.031)"/>
</svg>
